<?xml version="1.0" encoding="UTF-8"?>
<svg id="Camada_1" xmlns="http://www.w3.org/2000/svg" version="1.1" viewBox="0 0 272.41 44.47">
  <!-- Generator: Adobe Illustrator 30.6.0, SVG Export Plug-In . SVG Version: 2.1.4 Build 109)  -->
  <defs>
    <style>
      .st0 {
        fill: #7c2e3d;
      }

      .st1 {
        fill: #bb2948;
      }
    </style>
  </defs>
  <g id="CUSTOM-group">
    <g>
      <path class="st0" d="M182.12,15.31c-.22-10.74-13.33-18.66-23.64-9.64-10.3-9.01-23.42-1.11-23.64,9.64-.06,2.74.73,5.4,2.31,7.86h10.2l1.81-3.02c.52-.88,1.8-.91,2.36-.03l3.83,6.01,5.58-11.77c.49-1.03,1.94-1.06,2.47-.07l4.78,8.88h11.63c1.57-2.45,2.36-5.12,2.31-7.86Z"/>
      <path class="st1" d="M167.36,25.94c-.51,0-.98-.28-1.22-.73l-3.87-7.19-5.48,11.56c-.47.98-1.84,1.07-2.42.15l-3.97-6.24-1.06,1.77c-.25.42-.7.67-1.19.67h-8.79c.08.08.24.25.33.33,0,0,6.57,6.53,17.83,17.73.54.54,1.41.54,1.95,0l17.83-17.73c.11-.11.22-.22.33-.33h-10.27Z"/>
    </g>
  </g>
  <g>
    <path class="st0" d="M43.27,3.1c.33,2.08,0,26.95.12,30.67-.2,3.59,2.55,6.11,6.16,4.76.88-.28,1.69-.97,2.59-1.12,1.55-.27,1.71,1.5.68,2.29-5.79,5.13-16.37,7.52-20.33-.23-.23-.45-.6-1.27-1.08-1.19-.36.05-.68.45-.96.75-1.86,2.39-4.2,4.06-7,4.83C-5.28,50.44-8.67,2.38,19.18,1.87c4.12-.17,7.96,1.05,10.71,4.11.45.45,1.18,1.44,1.26.14.21-1.02-.52-3.27,1.15-3.08,2.62.04,9.39-.08,10.93.04l.05.02ZM15.16,10.9c-2.77,5.34-2.82,15.49-1.21,21.32,1.51,7.58,9.98,10.79,14.66,3.83,3.99-6.77,4.18-19.92-.57-26.62-3.19-4.51-10.53-3.73-12.78,1.28l-.1.19Z"/>
    <path class="st0" d="M54.67,4.64c.64-.92,2.03-.94,3.13-1.23,5.22-.95,10.31-.05,14.66,2.67,2.65,1.03,4.65-2.39,7.12-2.96,4.6-1.82,12.74-2.12,16.53,2.08.7.64,1.19,1.88,2.16,1.97.36.02.76-.16,1.19-.48,1.39-1.17,2.84-2.37,4.45-3.14,4.9-2.26,13.17-2.82,17.34,1.49,3.43,3.17,3.39,8.38,3.28,12.82,0,5.14,0,13.6,0,15.77.06,5.76,4.17,6.16,8.56,3.88.93-.2,1.66.26,1.48,1.09-.45,1.58-2.37,2.37-3.61,3.25-2.49,1.48-5.17,2.44-8.01,2.55-9.67.42-11.04-7.36-10.65-15.68,0-5.1,0-13.86,0-16.06.24-7.69-9.48-7.22-12.23-1.43-.59,1.21-.85,2.74-.83,3.92-.04,3.63.08,24.63-.04,27.86-.08.29-.6.24-2.02.25h-8.11c-.87,0-1.44,0-1.72-.04-.31-.05-.33-.19-.34-.45,0-2.7,0-21.13,0-28.04.12-2.77.03-6.34-3.09-7.46-3.72-1.5-8.27,1.13-9.49,4.84-.8,2.6-.37,4.68-.47,7.49,0,7.38,0,20.76,0,23.12-.05.82-.49.44-2.33.54-2.38,0-6.37,0-8.33,0-.91-.07-1.36.17-1.57-.29,0-2.71-.03-27.88-.01-35.59.05-.78.02-1.11-1.06-1.06-.58.01-1.45.11-2.26.25-1.32.23-2.46.76-3.2.03-.49-.44-.8-1.18-.57-1.81l.07-.15Z"/>
    <path class="st0" d="M217.9,1.94c2.12.28,2.34,3.31,2.36,5.07,0,3.39,0,23.77,0,26.82.07,5.62,4.38,6.03,8.59,3.64,1.52-.43,2.04,1.16,1.06,2.08-7.08,6.66-20.81,7.72-21.75-4.46-.29-2.77-.13-4.87-.17-7.85-.04-5.02.08-12.27-.04-16.78-.1-.41-.75-.15-1.85.19-2.11.92-5.25.61-7.07,2.01-.38.41-.54,1-.63,1.56-.52,3.52-1.55,7.06-3.1,10.58-.39,1.07-1.15,1.92-2.41,1.64-1.34-.26-1.76-1.13-1.32-2.16.91-2.8,1.52-6,1.74-9.52.11-1.16-.3-2.22-1.49-2.58-10.58-2.8-3.17-17.01,5.19-10.51.92.83,1.5,1.97,1.82,3.15.21.68.57,1.35,1.27,1.56,4.45.41,8.86-.98,13.83-3.19,1.18-.5,2.6-1.26,3.82-1.28h.17Z"/>
    <path class="st0" d="M259.3,20.5c3.52-3.8,4.24-12.25-1.54-13.96-3.65-1.16-6.53,1.49-8.4,4.61-3.84,6.97-3.69,18.16.73,24.59,4.43,6.11,13.86,3.77,18.77-.69.8-.88,2.56-1.37,3.09-.31.85,2.34-5.15,6.38-7.07,7.4-7.36,3.81-17.63,2.92-23.81-2.84-13.09-12.2-6.91-35.19,11.5-37.13,5.95-.78,13.12-.37,17.26,4.38,4.69,5.11,2.53,13.02-2.73,17.02-3.04,2.58-7.54,3.71-11.72,3.53-1.29-.11-2.9.05-3.73-1.05-.61-1.76,2.22-1.74,3.61-2.49,1.5-.65,2.83-1.64,3.89-2.89l.15-.18Z"/>
  </g>
</svg>